<?xml version="1.0" encoding="UTF-8" standalone="no"?>
<svg
   xmlns:dc="http://purl.org/dc/elements/1.1/"
   xmlns:cc="http://creativecommons.org/ns#"
   xmlns:rdf="http://www.w3.org/1999/02/22-rdf-syntax-ns#"
   xmlns:svg="http://www.w3.org/2000/svg"
   xmlns="http://www.w3.org/2000/svg"
   xmlns:sodipodi="http://sodipodi.sourceforge.net/DTD/sodipodi-0.dtd"
   xmlns:inkscape="http://www.inkscape.org/namespaces/inkscape"
   width="210mm"
   height="297mm"
   viewBox="0 0 210 297"
   version="1.1"
   id="svg8"
   inkscape:version="1.0.1 (3bc2e813f5, 2020-09-07)"
   sodipodi:docname="logoWIP.svg">
  <defs
     id="defs2">
    <rect
       x="1994.2024"
       y="21.166667"
       width="889"
       height="397.63095"
       id="rect1193" />
  </defs>
  <sodipodi:namedview
     id="base"
     pagecolor="#ffffff"
     bordercolor="#666666"
     borderopacity="1.0"
     inkscape:pageopacity="0.0"
     inkscape:pageshadow="2"
     inkscape:zoom="0.32"
     inkscape:cx="6344.6355"
     inkscape:cy="-327.61937"
     inkscape:document-units="mm"
     inkscape:current-layer="layer1"
     inkscape:document-rotation="0"
     showgrid="false"
     showborder="false"
     inkscape:snap-midpoints="true"
     inkscape:snap-object-midpoints="true"
     inkscape:snap-intersection-paths="true"
     inkscape:window-width="1920"
     inkscape:window-height="1001"
     inkscape:window-x="-9"
     inkscape:window-y="-9"
     inkscape:window-maximized="1" />
  <metadata
     id="metadata5">
    <rdf:RDF>
      <cc:Work
         rdf:about="">
        <dc:format>image/svg+xml</dc:format>
        <dc:type
           rdf:resource="http://purl.org/dc/dcmitype/StillImage" />
        <dc:title></dc:title>
      </cc:Work>
    </rdf:RDF>
  </metadata>
  <g
     inkscape:label="Layer 1"
     inkscape:groupmode="layer"
     id="layer1">
    <rect
       style="fill:#734848;fill-opacity:1;stroke:none;stroke-width:5.06289;stroke-miterlimit:4;stroke-dasharray:none;stroke-opacity:1"
       id="rect852"
       width="500"
       height="500"
       x="0"
       y="0"
       ry="0" />
    <rect
       style="fill:none;stroke:#000000;stroke-width:1.23472;stroke-miterlimit:4;stroke-dasharray:none;stroke-opacity:1"
       id="rect835"
       width="500"
       height="500"
       x="0"
       y="0" />
    <rect
       style="fill:none;fill-opacity:1;stroke:#000000;stroke-width:1.23472;stroke-miterlimit:4;stroke-dasharray:none;stroke-opacity:1"
       id="rect839"
       width="500"
       height="500"
       x="0"
       y="0"
       ry="93.738098" />
    <circle
       style="fill:none;fill-opacity:1;stroke:#000000;stroke-width:1.23472;stroke-miterlimit:4;stroke-dasharray:none;stroke-opacity:1"
       id="path837"
       cx="250"
       cy="250"
       r="250" />
    <path
       id="path854-8"
       style="fill:#c17f6e;fill-opacity:1;stroke:none;stroke-width:1.73022;stroke-miterlimit:4;stroke-dasharray:none;stroke-opacity:1"
       d="M 180.28047,55.291714 A 125,125 0 0 0 55.291714,180.29184 125,125 0 0 0 180.29184,305.29143 125,125 0 0 0 305.29143,180.29184 125,125 0 0 0 180.29184,55.291714 a 125,125 0 0 0 -0.0114,0 z m -0.17777,50.000046 a 75,75 0 0 1 0.18914,0 75,75 0 0 1 75.00007,75.00008 75,75 0 0 1 -75.00007,75.00007 75,75 0 0 1 -75.00008,-75.00007 75,75 0 0 1 74.81094,-75.00008 z" />
    <path
       id="path924"
       style="fill:#61b1bb;fill-opacity:1;stroke:none;stroke-width:1.28975;stroke-miterlimit:4;stroke-dasharray:none;stroke-opacity:1"
       d="m 420.83839,170.83866 -15.875,5.29167 H 276.13043 v 42.94415 l -5.29166,1.76372 5.29166,5.29166 v 5.3e-4 h 12.93151 l -11.34401,-2.93574 9.07127,-12.09487 4.49998,9.73895 5.2896,5.29166 h 29.55169 v 150.00014 h -50.00004 v 42.94415 l -5.29166,1.76372 5.29166,5.29166 h 149.99962 v -49.99953 l -5.29166,-5.29166 -15.875,5.29166 H 376.13052 V 226.13038 h 49.99953 v -50.00005 z" />
    <path
       id="rect856"
       style="fill:#a0d0d6;fill-opacity:1;stroke:none;stroke-width:1.28975;stroke-miterlimit:4;stroke-dasharray:none;stroke-opacity:1"
       d="m 270.83877,170.83866 v 50.00006 h 50.00003 v 150.00014 h -50.00003 v 49.99953 H 420.83839 V 370.83886 H 370.83886 V 220.83872 h 49.99953 v -50.00006 z" />
    <path
       id="path854"
       style="fill:#d6aba0;fill-opacity:1;stroke:none;stroke-width:1.73022;stroke-miterlimit:4;stroke-dasharray:none;stroke-opacity:1"
       d="M 174.9888,50.000048 A 125,125 0 0 0 50.000048,175.00017 125,125 0 0 0 175.00017,299.99977 125,125 0 0 0 299.99977,175.00017 125,125 0 0 0 175.00017,50.000048 a 125,125 0 0 0 -0.0114,0 z m -0.17777,50.000052 a 75,75 0 0 1 0.18914,0 75,75 0 0 1 75.00007,75.00007 75,75 0 0 1 -75.00007,75.00007 75,75 0 0 1 -75.00007,-75.00007 75,75 0 0 1 74.81093,-75.00007 z" />
    <g
       id="g1270">
      <rect
         style="fill:#734848;fill-opacity:1;stroke:none;stroke-width:5.06289;stroke-miterlimit:4;stroke-dasharray:none;stroke-opacity:1"
         id="rect852-4"
         width="500"
         height="500"
         x="797.75"
         y="-20.190475"
         ry="0" />
      <rect
         style="fill:none;stroke:#000000;stroke-width:1.23472;stroke-miterlimit:4;stroke-dasharray:none;stroke-opacity:1"
         id="rect835-8"
         width="500"
         height="500"
         x="797.75"
         y="-20.190475" />
      <rect
         style="fill:none;fill-opacity:1;stroke:#000000;stroke-width:1.23472;stroke-miterlimit:4;stroke-dasharray:none;stroke-opacity:1"
         id="rect839-4"
         width="500"
         height="500"
         x="797.75"
         y="-20.190475"
         ry="93.738098" />
      <circle
         style="fill:none;fill-opacity:1;stroke:#000000;stroke-width:1.23472;stroke-miterlimit:4;stroke-dasharray:none;stroke-opacity:1"
         id="path837-4"
         cx="1047.75"
         cy="229.80952"
         r="250" />
      <path
         id="path924-3"
         style="fill:#61b1bb;fill-opacity:1;stroke:none;stroke-width:1.30863;stroke-miterlimit:4;stroke-dasharray:none;stroke-opacity:1"
         d="m 1218.5107,146.91205 -16.1073,5.36911 H 1071.685 v 43.57262 l -5.3686,1.78953 5.3686,5.36911 v 5.3e-4 h 13.1207 7.6269 29.9847 v 152.19536 h -50.7323 v 43.57262 l -5.3686,1.78953 5.3686,5.36911 h 152.1953 v -50.73126 l -5.3696,-5.36911 -16.1073,5.36911 h -29.2549 V 203.01295 h 50.7318 v -50.73179 z" />
      <path
         id="path1160"
         style="fill:#c17f6e;fill-opacity:1;stroke:none;stroke-width:1.0968;stroke-miterlimit:4;stroke-dasharray:none;stroke-opacity:1"
         d="m 931.79294,33.167081 a 135.20793,135.20793 0 0 0 -40.13172,23.0331 l 6.71224,40.126544 a 102.4056,102.4056 0 0 0 -8.68263,12.884415 l -5.3e-4,0.001 a 102.4056,102.4056 0 0 0 -6.56338,13.8673 l -38.35972,14.3453 a 135.20793,135.20793 0 0 0 -1.93579,22.79435 135.20793,135.20793 0 0 0 0,0.24703 135.20793,135.20793 0 0 0 0.54104,11.83538 l -3.95376,5.08908 5.29164,5.29164 38.6264,14.44503 a 102.4056,102.4056 0 0 0 6.68689,13.90761 102.4056,102.4056 0 0 0 0.0109,0.01 102.4056,102.4056 0 0 0 8.70641,12.74851 l -5.24153,31.3354 -6.85327,4.04417 5.29164,5.29164 a 135.20793,135.20793 0 0 0 39.21237,22.57113 l 31.6031,-26.0479 a 102.4056,102.4056 0 0 0 15.29148,1.24953 h 5.1e-4 5.3e-4 a 102.4056,102.4056 0 0 0 15.50027,-1.07744 l 31.39477,25.87631 a 135.20793,135.20793 0 0 0 40.0134,-23.23876 l -6.6176,-39.56328 a 102.4056,102.4056 0 0 0 8.7269,-12.61725 l -4e-4,-0.001 a 102.4056,102.4056 0 0 0 6.8171,-13.96135 l 37.3174,-13.95515 a 135.20793,135.20793 0 0 0 2.0541,-23.47699 135.20793,135.20793 0 0 0 -2.1151,-23.82065 l -5.2916,-5.29164 -2.1761,2.49906 -29.5795,-11.06129 a 102.4056,102.4056 0 0 0 -6.6935,-13.91535 102.4056,102.4056 0 0 0 -8.706,-12.751099 l 6.5252,-39.011372 -5.2916,-5.29164 -0.7136,0.511078 a 135.20793,135.20793 0 0 0 -34.9275,-18.921229 l -30.74413,25.339926 a 102.4056,102.4056 0 0 0 -15.49923,-1.076933 l -5.3e-4,-0.001 a 102.4056,102.4056 0 0 0 -5.1e-4,5.16e-4 102.4056,102.4056 0 0 0 -15.29148,1.249012 z m 46.95452,65.221526 a 61.443354,61.443354 0 0 1 53.17374,30.721993 61.443354,61.443354 0 0 1 -22.4899,83.93295 61.443354,61.443354 0 0 1 -83.85604,-22.35562 61.443354,61.443354 0 0 1 -0.0765,-0.13436 61.443354,61.443354 0 0 1 -8.23202,-30.77161 h -5.3e-4 a 61.443354,61.443354 0 0 1 30.72202,-53.16134 61.443354,61.443354 0 0 1 30.75919,-8.232013 z" />
      <path
         style="fill:#61b1bb;stroke:none;stroke-width:0.264583px;stroke-linecap:butt;stroke-linejoin:miter;stroke-opacity:1;fill-opacity:1"
         d="m 1066.3162,197.64386 5.3688,5.36909 6.7475,-2.82808 -0.8018,-6.01356 z"
         id="path1185" />
      <path
         id="rect856-9"
         style="fill:#a0d0d6;fill-opacity:1;stroke:none;stroke-width:1.30863;stroke-miterlimit:4;stroke-dasharray:none;stroke-opacity:1"
         d="m 1066.3162,146.91208 v 50.73178 h 50.7317 v 152.19535 h -50.7317 v 50.73126 h 152.1948 v -50.73126 h -50.7313 V 197.64386 h 50.7313 v -50.73178 z" />
      <path
         id="path1054"
         style="fill:#d5aa9f;fill-opacity:1;stroke:none;stroke-width:1.0968;stroke-miterlimit:4;stroke-dasharray:none;stroke-opacity:1"
         d="m 837.53973,155.17466 a 135.20794,135.20794 0 0 0 1.87886,22.21606 l 38.62667,14.44493 a 102.4056,102.4056 0 0 0 6.68679,13.90768 102.4056,102.4056 0 0 0 0.0108,0.01 102.4056,102.4056 0 0 0 0,3.9e-4 102.4056,102.4056 0 0 0 8.70637,12.74855 l -6.80295,40.67099 a 135.20794,135.20794 0 0 0 39.21207,22.57128 l 31.60318,-26.04791 a 102.4056,102.4056 0 0 0 15.29169,1.24936 l 3.2e-4,2e-5 4.4e-4,-3e-5 a 102.4056,102.4056 0 0 0 15.50035,-1.07742 l 31.39448,25.87639 a 135.20794,135.20794 0 0 0 40.0136,-23.23888 l -6.6176,-39.56307 a 102.4056,102.4056 0 0 0 8.727,-12.61731 l -10e-5,-2.8e-4 -2e-4,-7e-4 a 102.4056,102.4056 0 0 0 6.8169,-13.96146 l 37.3175,-13.95512 a 135.20794,135.20794 0 0 0 2.0542,-23.47722 135.20794,135.20794 0 0 0 -2.1152,-23.82054 l -37.0471,-13.85395 a 102.4056,102.4056 0 0 0 -6.6933,-13.91546 102.4056,102.4056 0 0 0 -8.706,-12.751046 l 6.5251,-39.011392 a 135.20794,135.20794 0 0 0 -40.933,-23.701647 l -30.74417,25.340011 a 102.4056,102.4056 0 0 0 -15.49915,-1.077019 l -5.4e-4,-0.0011 v 3.89e-4 a 102.4056,102.4056 0 0 0 -4.3e-4,2.2e-5 102.4056,102.4056 0 0 0 -15.29126,1.249351 L 926.50132,27.875243 a 135.20794,135.20794 0 0 0 -40.13161,23.033119 l 6.71187,40.126569 a 102.4056,102.4056 0 0 0 -8.68257,12.884419 102.4056,102.4056 0 0 0 10e-5,2.8e-4 l -4.3e-4,8.1e-4 a 102.4056,102.4056 0 0 0 -6.56325,13.86745 l -38.35995,14.34503 a 135.20794,135.20794 0 0 0 -1.93553,22.79479 135.20794,135.20794 0 0 0 0,0.24679 z m 74.43497,-0.68457 a 61.443357,61.443357 0 0 1 30.72171,-53.1613 61.443357,61.443357 0 0 1 83.93319,22.48996 61.443357,61.443357 0 0 1 -22.4899,83.9334 61.443357,61.443357 0 0 1 -83.85583,-22.35578 61.443357,61.443357 0 0 1 -0.0768,-0.13419 61.443357,61.443357 0 0 1 -8.23174,-30.77209 z" />
    </g>
    <rect
       style="fill:#734848;fill-opacity:1;stroke:none;stroke-width:5.06288;stroke-miterlimit:4;stroke-dasharray:none;stroke-opacity:1"
       id="rect852-4-5"
       width="500"
       height="500"
       x="1450.1683"
       y="-308.46521"
       ry="0" />
    <rect
       style="fill:none;stroke:#000000;stroke-width:1.23472;stroke-miterlimit:4;stroke-dasharray:none;stroke-opacity:1"
       id="rect835-8-6"
       width="500"
       height="500"
       x="1450.1683"
       y="-308.46521" />
    <rect
       style="fill:none;fill-opacity:1;stroke:#000000;stroke-width:1.23472;stroke-miterlimit:4;stroke-dasharray:none;stroke-opacity:1"
       id="rect839-4-2"
       width="500"
       height="500"
       x="1450.1683"
       y="-308.46521"
       ry="93.738098" />
    <circle
       style="fill:none;fill-opacity:1;stroke:#000000;stroke-width:1.23472;stroke-miterlimit:4;stroke-dasharray:none;stroke-opacity:1"
       id="path837-4-9"
       cx="1700.1683"
       cy="-58.46521"
       r="250" />
    <path
       id="path924-3-1"
       style="fill:#61b1bb;fill-opacity:1;stroke:none;stroke-width:1.30863;stroke-miterlimit:4;stroke-dasharray:none;stroke-opacity:1"
       d="m 2343.8717,-85.965544 -16.1073,5.36911 H 2197.046 v 43.572624 l -5.3686,1.78953 5.3686,5.36911 v 5.3e-4 h 13.1207 7.6269 29.9847 v 152.19536 h -50.7323 v 43.57262 l -5.3686,1.78954 5.3686,5.36911 h 152.1954 v -50.73127 l -5.3697,-5.36911 -16.1073,5.36911 h -29.2549 V -29.86464 h 50.7319 v -50.731794 z" />
    <path
       id="path1160-0"
       style="fill:#c17f6e;fill-opacity:1;stroke:none;stroke-width:1.0968;stroke-miterlimit:4;stroke-dasharray:none;stroke-opacity:1"
       d="m 1584.2112,-255.10765 a 135.20793,135.20793 0 0 0 -40.1317,23.0331 l 6.7122,40.12655 a 102.4056,102.4056 0 0 0 -8.6826,12.88442 l -5e-4,0.001 a 102.4056,102.4056 0 0 0 -6.5634,13.8673 l -38.3597,14.34529 a 135.20793,135.20793 0 0 0 -1.9358,22.79435 135.20793,135.20793 0 0 0 0,0.24703 135.20793,135.20793 0 0 0 0.541,11.83537 l -3.9537,5.08909 5.2916,5.29164 38.6264,14.445034 a 102.4056,102.4056 0 0 0 6.6869,13.90761 102.4056,102.4056 0 0 0 0.011,0.01 102.4056,102.4056 0 0 0 8.7064,12.74851 l -5.2415,31.33539 -6.8533,4.04418 5.2917,5.29164 a 135.20793,135.20793 0 0 0 39.2123,22.5711295 l 31.6031,-26.0479095 a 102.4056,102.4056 0 0 0 15.2915,1.24954 h 5e-4 6e-4 a 102.4056,102.4056 0 0 0 15.5002,-1.07746 l 31.3948,25.8763295 a 135.20793,135.20793 0 0 0 40.0134,-23.2388295 l -6.6176,-39.56327 a 102.4056,102.4056 0 0 0 8.7269,-12.61725 v -0.001 a 102.4056,102.4056 0 0 0 6.8171,-13.96135 l 37.3174,-13.955154 a 135.20793,135.20793 0 0 0 2.0541,-23.47699 135.20793,135.20793 0 0 0 -2.1151,-23.82065 l -5.2916,-5.29163 -2.1761,2.49906 -29.5795,-11.06129 a 102.4056,102.4056 0 0 0 -6.6935,-13.91535 102.4056,102.4056 0 0 0 -8.706,-12.7511 l 6.5252,-39.01138 -5.2916,-5.29164 -0.7136,0.51108 a 135.20793,135.20793 0 0 0 -34.9279,-18.92117 l -30.7441,25.33993 a 102.4056,102.4056 0 0 0 -15.4993,-1.07694 l -5e-4,-0.001 a 102.4056,102.4056 0 0 0 -5e-4,5.3e-4 102.4056,102.4056 0 0 0 -15.2915,1.24901 z m 46.9545,65.22153 a 61.443354,61.443354 0 0 1 53.1738,30.722 61.443354,61.443354 0 0 1 -22.4899,83.932944 61.443354,61.443354 0 0 1 -83.8561,-22.35562 61.443354,61.443354 0 0 1 -0.077,-0.13436 61.443354,61.443354 0 0 1 -8.232,-30.771614 h -5e-4 a 61.443354,61.443354 0 0 1 30.722,-53.16133 61.443354,61.443354 0 0 1 30.7592,-8.23202 z" />
    <path
       id="path1054-0"
       style="fill:#d5aa9f;fill-opacity:1;stroke:none;stroke-width:1.0968;stroke-miterlimit:4;stroke-dasharray:none;stroke-opacity:1"
       d="m 1489.958,-133.10007 a 135.20794,135.20794 0 0 0 1.8789,22.21606 l 38.6266,14.444934 a 102.4056,102.4056 0 0 0 6.6868,13.90768 102.4056,102.4056 0 0 0 0.011,0.01 102.4056,102.4056 0 0 0 0,2.6e-4 102.4056,102.4056 0 0 0 8.7064,12.74855 l -6.8029,40.67099 a 135.20794,135.20794 0 0 0 39.212,22.5712895 l 31.6032,-26.0479095 a 102.4056,102.4056 0 0 0 15.2917,1.24933 l 3e-4,3e-5 5e-4,-3e-5 a 102.4056,102.4056 0 0 0 15.5003,-1.07741 l 31.3945,25.8763895 a 135.20794,135.20794 0 0 0 40.0136,-23.2388895 l -6.6176,-39.56306 a 102.4056,102.4056 0 0 0 8.727,-12.61731 l -10e-5,-2.6e-4 -2e-4,-7.9e-4 a 102.4056,102.4056 0 0 0 6.8169,-13.96146 l 37.3175,-13.955124 a 135.20794,135.20794 0 0 0 2.0542,-23.47722 135.20794,135.20794 0 0 0 -2.1152,-23.82053 l -37.0471,-13.85375 a 102.4056,102.4056 0 0 0 -6.6933,-13.91546 102.4056,102.4056 0 0 0 -8.706,-12.75105 l 6.5251,-39.0114 a 135.20794,135.20794 0 0 0 -40.933,-23.70164 l -30.7442,25.34001 a 102.4056,102.4056 0 0 0 -15.4991,-1.07702 l -6e-4,-0.001 v 2.6e-4 a 102.4056,102.4056 0 0 0 -5e-4,2e-5 102.4056,102.4056 0 0 0 -15.2913,1.24935 l -30.9536,-25.51316 a 135.20794,135.20794 0 0 0 -40.1316,23.03312 l 6.7119,40.12658 a 102.4056,102.4056 0 0 0 -8.6826,12.88442 102.4056,102.4056 0 0 0 10e-5,2.6e-4 l -5e-4,8e-4 a 102.4056,102.4056 0 0 0 -6.5633,13.86745 l -38.3599,14.34503 a 135.20794,135.20794 0 0 0 -1.9356,22.79477 135.20794,135.20794 0 0 0 0,0.24679 z m 74.435,-0.68457 a 61.443357,61.443357 0 0 1 30.7217,-53.16129 61.443357,61.443357 0 0 1 83.9332,22.48996 61.443357,61.443357 0 0 1 -22.4899,83.933394 61.443357,61.443357 0 0 1 -83.8558,-22.355784 61.443357,61.443357 0 0 1 -0.077,-0.13419 61.443357,61.443357 0 0 1 -8.2318,-30.77209 z" />
    <rect
       style="fill:#a0d0d6;fill-opacity:1;stroke:none;stroke-width:0.713189;stroke-miterlimit:4;stroke-dasharray:none;stroke-opacity:1"
       id="rect1197"
       width="54.954006"
       height="219.81602"
       x="1794.3434"
       y="-79.438705" />
    <g
       id="g1276"
       transform="matrix(-0.70481849,0,0,0.70481849,3042.3029,-334.51068)">
      <path
         id="path1201"
         style="fill:#a0d0d6;fill-opacity:1;stroke:none;stroke-width:1.23472;stroke-miterlimit:4;stroke-dasharray:none;stroke-opacity:1"
         d="m 1708.3913,237.10594 c -18.082,-6e-5 -32.7404,14.65814 -32.7406,32.74011 0,0.38664 0.01,0.77322 0.021,1.15962 l -0.021,0.01 c 0.011,0.11729 0.024,0.23235 0.036,0.34935 0.074,1.58954 0.2635,3.17159 0.5674,4.73356 5.4625,37.93842 28.3578,55.57012 43.7746,58.29564 17.81,3.14862 36.9772,3.8095 51.1007,-13.71375 7.5205,-9.33082 11.2463,-26.39174 8.4954,-36.063 -2.8458,8.5121 -11.801,39.57013 -35.8739,30.71535 -11.2925,-4.15377 -2.6185,-26.04085 -2.6185,-45.48659 0,-18.08198 -14.6587,-32.74018 -32.7407,-32.74011 z"
         sodipodi:nodetypes="ssccccsscssss" />
      <path
         style="fill:#e4f3f3;fill-opacity:1;stroke:none;stroke-width:0.427479px;stroke-linecap:butt;stroke-linejoin:miter;stroke-opacity:1"
         d="m 1694.3534,292.60414 c 3.3397,1.00187 8.709,-9.79707 12.9928,-9.91572 3.9503,-0.1094 8.6669,10.43286 11.6726,10.43286 3.0058,0 2.9944,-4.72843 1.2569,-9.9639 -1.7989,-5.42041 -7.642,-9.78845 -12.6037,-9.98705 -4.4176,-0.17682 -11.3633,3.71375 -13.5338,8.5081 -0.8263,1.82546 -2.7905,9.92378 0.2152,10.92571 z"
         id="path1207"
         sodipodi:nodetypes="csssssc" />
      <path
         style="fill:#e4f3f3;fill-opacity:1;stroke:none;stroke-width:0.264583px;stroke-linecap:butt;stroke-linejoin:miter;stroke-opacity:1"
         d="m 1684.755,275.8488 c 0,0 4.7543,-8.16487 11.8856,-11.78224 4.6608,-2.36422 4.5372,-9.57378 2.3771,-11.1621 -3.514,-2.58382 -9.4262,-0.24984 -12.5057,4.75423 -3.3072,5.37435 -1.757,18.19011 -1.757,18.19011 z"
         id="path1209"
         sodipodi:nodetypes="csssc" />
      <path
         style="fill:#e4f3f3;fill-opacity:1;stroke:none;stroke-width:0.267925px;stroke-linecap:butt;stroke-linejoin:miter;stroke-opacity:1"
         d="m 1727.9475,274.68203 c 0,0 -5.352,-7.93056 -12.8004,-11.10669 -4.868,-2.07584 -5.2272,-9.3687 -3.1513,-11.11859 3.3771,-2.84667 9.5075,-0.88541 12.9551,3.96392 3.7024,5.20818 2.9966,18.26136 2.9966,18.26136 z"
         id="path1211"
         sodipodi:nodetypes="csssc" />
    </g>
  </g>
</svg>
